<svg xmlns="http://www.w3.org/2000/svg" viewBox="0 0 256 256" role="img" aria-label="نشان سامانه هوشمند کلینیک صدرا">
  <defs>
    <linearGradient id="g" x1="30" y1="40" x2="220" y2="220" gradientUnits="userSpaceOnUse">
      <stop offset="0" stop-color="#14b8a6"/>
      <stop offset="0.55" stop-color="#0891b2"/>
      <stop offset="1" stop-color="#2563eb"/>
    </linearGradient>
    <filter id="s" x="-20%" y="-20%" width="140%" height="140%">
      <feDropShadow dx="0" dy="12" stdDeviation="12" flood-color="#0f172a" flood-opacity=".18"/>
    </filter>
  </defs>
  <rect x="24" y="24" width="208" height="208" rx="58" fill="url(#g)" filter="url(#s)"/>
  <path d="M128 58c-12 0-22 10-22 22v26H80c-12 0-22 10-22 22s10 22 22 22h26v26c0 12 10 22 22 22s22-10 22-22v-26h26c12 0 22-10 22-22s-10-22-22-22h-26V80c0-12-10-22-22-22Z" fill="#fff"/>
  <path d="M68 188c31 20 89 20 120 0" fill="none" stroke="#ccfbf1" stroke-width="12" stroke-linecap="round"/>
  <circle cx="78" cy="78" r="9" fill="#ccfbf1"/>
  <circle cx="190" cy="78" r="9" fill="#ccfbf1"/>
</svg>